<svg width="78" height="78" viewBox="0 0 78 78" fill="none" xmlns="http://www.w3.org/2000/svg">
<path fill-rule="evenodd" clip-rule="evenodd" d="M39 0C60.5391 0 78 17.4609 78 39C78 60.5391 60.5391 78 39 78C17.4609 78 0 60.5391 0 39C0 17.4609 17.4609 0 39 0ZM39 10C22.9837 10 10 22.9837 10 39C10 55.0163 22.9837 68 39 68C55.0163 68 68 55.0163 68 39C68 22.9837 55.0163 10 39 10Z" fill="black"/>
<path d="M60.4185 38.5074C48.2477 38.8018 38.4756 48.3115 38.4756 60C38.4756 48.7849 29.4798 39.5791 18 38.5914V38.4086C29.4798 37.4209 38.4756 28.2151 38.4756 17C38.4756 28.8741 48.5604 38.5 61 38.5L60.4185 38.5074Z" fill="black"/>
</svg>
