<svg width="78" height="78" viewBox="0 0 78 78" fill="none" xmlns="http://www.w3.org/2000/svg">
<path fill-rule="evenodd" clip-rule="evenodd" d="M78 78H0V0H78V78ZM10 10V68H68V10H10Z" fill="black"/>
<path d="M56 30.0488C56 34.9385 52.0361 38.9024 47.1463 38.9024C51.7647 38.9024 55.5556 42.4387 55.9623 46.9512H56V55H47.9512C43.0615 55 39.0976 51.0361 39.0976 46.1463C39.0976 50.7647 35.5613 54.5556 31.0488 54.9623V55H23V46.9512H23.0377C23.4444 42.4387 27.2353 38.9024 31.8537 38.9024C26.9639 38.9024 23 34.9385 23 30.0488V22H31.0488V22.0377C35.5613 22.4444 39.0976 26.2353 39.0976 30.8537C39.0976 25.9639 43.0615 22 47.9512 22H56V30.0488Z" fill="black"/>
</svg>
