<svg width="78" height="78" viewBox="0 0 78 78" fill="none" xmlns="http://www.w3.org/2000/svg">
<path fill-rule="evenodd" clip-rule="evenodd" d="M39 0C60.5391 0 78 17.4609 78 39C78 60.5391 60.5391 78 39 78C17.4609 78 0 60.5391 0 39C0 17.4609 17.4609 0 39 0ZM39 10C22.9837 10 10 22.9837 10 39C10 55.0163 22.9837 68 39 68C55.0163 68 68 55.0163 68 39C68 22.9837 55.0163 10 39 10Z" fill="black"/>
<path d="M54 31.561C54 36.1544 50.2763 39.878 45.6829 39.878C50.0214 39.878 53.5825 43.2 53.9646 47.439H54V55H46.439C41.8456 55 38.122 51.2763 38.122 46.6829C38.122 51.0214 34.8 54.5825 30.561 54.9646V55H23V47.439H23.0354C23.4175 43.2 26.9786 39.878 31.3171 39.878C26.7237 39.878 23 36.1544 23 31.561V24H30.561V24.0354C34.8 24.4175 38.122 27.9786 38.122 32.3171C38.122 27.7237 41.8456 24 46.439 24H54V31.561Z" fill="black"/>
</svg>
