<svg width="13" height="13" viewBox="0 0 13 13" fill="none" xmlns="http://www.w3.org/2000/svg">
<path d="M5.83333 9.83333C5.83333 10.5406 5.55238 11.2189 5.05228 11.719C4.55219 12.219 3.87391 12.5 3.16667 12.5C2.45942 12.5 1.78115 12.219 1.28105 11.719C0.780951 11.2189 0.5 10.5406 0.5 9.83333V1.83333C0.5 1.47971 0.640476 1.14057 0.890524 0.890524C1.14057 0.640476 1.47971 0.5 1.83333 0.5H4.5C4.85362 0.5 5.19276 0.640476 5.44281 0.890524C5.69286 1.14057 5.83333 1.47971 5.83333 1.83333V9.83333Z" stroke="#7D7D7D" stroke-linecap="round" stroke-linejoin="round"/>
<path d="M9.63268 7.16406H11.166C11.5196 7.16406 11.8588 7.30454 12.1088 7.55459C12.3589 7.80464 12.4993 8.14377 12.4993 8.4974V11.1641C12.4993 11.5177 12.3589 11.8568 12.1088 12.1069C11.8588 12.3569 11.5196 12.4974 11.166 12.4974H3.16602" stroke="#7D7D7D" stroke-linecap="round" stroke-linejoin="round"/>
<path d="M3.16602 9.83594H3.17185" stroke="#7D7D7D" stroke-linecap="round" stroke-linejoin="round"/>
<path d="M5.83392 3.83597L7.36725 2.30263C7.51612 2.15325 7.69306 2.03476 7.88788 1.954C8.0827 1.87323 8.29157 1.83178 8.50247 1.83203C8.71337 1.83228 8.92215 1.87422 9.11678 1.95544C9.31141 2.03666 9.48807 2.15556 9.63659 2.3053L10.9006 3.5693C11.0543 3.71717 11.1769 3.89429 11.2612 4.09024C11.3455 4.28619 11.3897 4.49702 11.3914 4.71032C11.393 4.92362 11.3519 5.13509 11.2706 5.33229C11.1893 5.52949 11.0694 5.70845 10.9179 5.85863L5.10059 11.7026" stroke="#7D7D7D" stroke-linecap="round" stroke-linejoin="round"/>
</svg>
