<svg width="78" height="78" viewBox="0 0 78 78" fill="none" xmlns="http://www.w3.org/2000/svg">
<path fill-rule="evenodd" clip-rule="evenodd" d="M78 78H0V0H78V78ZM10 10V68H68V10H10Z" fill="black"/>
<path d="M37.4007 23.1287C37.9359 21.6238 40.0641 21.6238 40.5993 23.1287L42.2674 27.8195C42.6044 28.7672 43.687 29.2156 44.5954 28.7838L49.0919 26.6464C50.5344 25.9607 52.0393 27.4656 51.3536 28.9081L49.2162 33.4046C48.7844 34.313 49.2328 35.3956 50.1805 35.7326L54.8713 37.4007C56.3762 37.9359 56.3762 40.0641 54.8713 40.5993L50.1805 42.2674C49.2328 42.6044 48.7844 43.687 49.2162 44.5954L51.3536 49.0919C52.0393 50.5344 50.5344 52.0393 49.0919 51.3536L44.5954 49.2162C43.687 48.7844 42.6044 49.2328 42.2674 50.1805L40.5993 54.8713C40.0641 56.3762 37.9359 56.3762 37.4007 54.8713L35.7326 50.1805C35.3956 49.2328 34.313 48.7844 33.4046 49.2162L28.9081 51.3536C27.4656 52.0393 25.9607 50.5344 26.6464 49.0919L28.7838 44.5954C29.2156 43.687 28.7672 42.6044 27.8195 42.2674L23.1287 40.5993C21.6238 40.0641 21.6238 37.9359 23.1287 37.4007L27.8195 35.7326C28.7672 35.3956 29.2156 34.313 28.7838 33.4046L26.6464 28.9081C25.9607 27.4656 27.4656 25.9607 28.9081 26.6464L33.4046 28.7838C34.313 29.2156 35.3956 28.7672 35.7326 27.8195L37.4007 23.1287Z" fill="black"/>
</svg>
